<?xml version="1.0" standalone="no"?>
<!DOCTYPE svg PUBLIC "-//W3C//DTD SVG 20010904//EN"
 "http://www.w3.org/TR/2001/REC-SVG-20010904/DTD/svg10.dtd">
<svg version="1.0" xmlns="http://www.w3.org/2000/svg"
 width="128.000000pt" height="128.000000pt" viewBox="0 0 128.000000 128.000000"
 preserveAspectRatio="xMidYMid meet">
<metadata>
Created by potrace 1.10, written by Peter Selinger 2001-2011
</metadata>
<g transform="translate(0.000000,128.000000) scale(0.100000,-0.100000)"
fill="#000000" stroke="none">
<path d="M240 1271 c0 -17 38 -51 58 -51 10 0 22 -4 28 -8 5 -5 20 -6 34 -1
23 6 22 7 -9 8 -30 1 -33 3 -27 26 6 22 3 25 -23 25 -16 0 -36 3 -45 6 -9 3
-16 1 -16 -5z"/>
<path d="M505 1270 c-4 -6 -27 -20 -51 -30 -58 -25 -57 -33 1 -11 47 18 73 37
63 46 -3 4 -9 1 -13 -5z"/>
<path d="M775 1263 c4 -10 9 -26 12 -35 3 -9 20 -22 39 -28 60 -20 85 -90 47
-133 -10 -11 -12 -17 -5 -13 6 4 12 4 12 0 0 -13 -39 -70 -63 -91 -19 -16 -23
-27 -19 -49 l5 -29 8 26 c10 40 57 105 63 88 12 -37 16 -41 11 -11 -5 38 3 82
15 82 13 0 43 -87 35 -102 -6 -10 -5 -10 5 -1 9 9 10 19 0 47 -8 26 -8 41 0
58 11 23 11 23 -5 3 -17 -20 -17 -20 -11 1 11 38 -78 154 -106 139 -10 -6 -11
-5 0 6 6 7 12 24 12 39 0 18 -3 21 -9 11 -6 -9 -11 -10 -15 -2 -12 19 -39 13
-31 -6z"/>
<path d="M616 1260 c-31 -10 -100 -71 -118 -105 -11 -19 -10 -19 8 -5 10 8 36
29 58 47 58 48 102 66 144 58 30 -6 33 -8 19 -16 -9 -6 -22 -20 -28 -32 -11
-21 -11 -21 14 2 18 16 33 22 49 18 22 -6 21 -4 -5 19 -30 26 -83 31 -141 14z"/>
<path d="M847 1240 c-4 -14 0 -20 12 -20 44 0 121 -86 120 -135 0 -20 -1 -20
-8 0 -7 18 -8 17 -13 -5 -3 -14 -2 -47 2 -75 6 -41 8 -44 9 -16 0 18 6 50 12
71 10 31 8 42 -10 78 -11 22 -38 53 -58 68 -21 15 -43 34 -49 41 -9 11 -13 10
-17 -7z"/>
<path d="M587 1185 c-45 -31 -48 -41 -6 -19 34 17 97 11 68 -7 -11 -7 -9 -9 8
-9 34 0 35 15 3 38 -16 12 -31 22 -32 22 -2 0 -20 -11 -41 -25z"/>
<path d="M295 1188 c-34 -18 -76 -61 -106 -107 -22 -34 -29 -57 -29 -95 l0
-51 20 32 c30 49 87 73 61 25 -31 -58 -113 -91 -141 -57 -25 31 -21 5 4 -28
29 -38 73 -61 103 -55 15 4 14 7 -9 18 -30 14 -38 40 -12 40 27 0 74 56 74 89
0 27 18 43 52 46 3 0 10 3 14 8 13 13 -14 8 -67 -14 -44 -17 -50 -17 -39 -4
11 13 11 18 2 24 -9 5 5 26 43 66 56 57 68 83 30 63z"/>
<path d="M722 1163 c-24 -14 -39 -29 -34 -32 5 -3 12 -13 15 -21 4 -12 6 -12
6 2 1 9 15 28 33 42 44 34 32 40 -20 9z"/>
<path d="M840 1162 c8 -16 8 -27 1 -36 -11 -13 -73 -14 -106 -2 -16 6 -15 4 5
-12 17 -14 33 -19 52 -15 20 4 28 1 29 -8 0 -8 4 -6 8 5 7 17 8 17 24 2 16
-16 17 -16 17 12 0 16 -9 40 -21 53 l-20 24 11 -23z"/>
<path d="M670 1083 c0 -5 -20 -41 -45 -79 -50 -77 -62 -115 -14 -44 41 62 72
121 65 128 -3 3 -6 1 -6 -5z"/>
<path d="M669 1030 c-15 -28 -25 -50 -23 -50 9 0 56 80 52 89 -1 6 -15 -12
-29 -39z"/>
<path d="M563 1020 c-16 -38 -33 -56 -68 -77 -71 -42 -84 -55 -40 -37 22 9 48
23 57 31 9 8 21 12 26 9 10 -6 36 45 46 92 10 45 5 40 -21 -18z"/>
<path d="M986 1035 c-3 -9 -6 -36 -6 -60 0 -26 -6 -47 -15 -55 -19 -15 -19
-34 -2 -49 11 -8 16 7 26 81 11 87 10 117 -3 83z"/>
<path d="M340 1002 c0 -24 47 -117 67 -134 9 -7 5 5 -10 27 -14 22 -29 59 -33
83 -6 41 -24 59 -24 24z"/>
<path d="M303 968 c-21 -24 -64 -90 -47 -73 17 17 76 95 72 95 -3 0 -14 -10
-25 -22z"/>
<path d="M931 938 c-1 -9 -6 -29 -12 -45 -8 -22 -12 -24 -19 -13 -8 13 -10 12
-10 -2 0 -10 -4 -18 -10 -18 -5 0 -10 -10 -10 -22 0 -26 -13 -50 -26 -49 -8 1
-7 -139 1 -147 2 -2 8 28 15 66 8 50 18 76 35 92 27 25 39 21 61 -21 12 -25
13 -37 4 -65 -14 -40 -65 -104 -84 -104 -7 0 -18 -25 -25 -56 -10 -45 -23 -66
-71 -118 -69 -73 -137 -123 -149 -110 -57 59 -140 172 -167 226 -35 70 -40 83
-26 74 4 -2 14 -1 21 3 9 6 3 10 -18 13 -26 4 -31 2 -25 -11 3 -9 13 -36 22
-61 8 -25 21 -54 29 -66 7 -11 10 -24 6 -29 -5 -4 -3 -5 3 -2 7 4 14 1 17 -6
2 -7 -15 -29 -39 -50 -45 -39 -58 -40 -26 -2 9 12 1 3 -20 -18 -36 -40 -52
-85 -36 -109 4 -8 8 5 9 32 l1 45 9 -55 c5 -30 13 -113 18 -185 l10 -130 -5
145 c-3 80 -7 161 -10 181 -5 32 -2 38 41 74 l47 38 -21 -41 c-17 -34 -21 -57
-19 -134 1 -92 1 -92 7 -26 5 50 12 72 29 90 12 14 22 29 22 35 0 6 8 14 17
17 18 7 86 -51 77 -66 -3 -5 -2 -8 3 -7 4 1 22 1 40 0 26 -1 30 -4 26 -21 -6
-23 -8 -24 -34 -10 -13 8 -25 7 -39 0 -17 -9 -19 -8 -14 7 4 10 -12 -8 -34
-40 -41 -60 -49 -63 -47 -15 0 15 -2 25 -7 22 -4 -2 -5 -20 -2 -40 3 -25 1
-33 -8 -28 -7 4 -8 3 -4 -5 4 -6 12 -9 17 -6 5 3 -7 -31 -26 -76 -19 -46 -32
-85 -30 -88 7 -6 34 31 35 47 0 7 8 12 18 11 9 -1 36 -1 58 0 40 1 42 3 63 50
11 27 21 65 20 83 0 27 -2 29 -8 13 -5 -11 -6 -25 -4 -32 5 -12 -33 -103 -43
-103 -3 0 -14 5 -24 10 -14 7 -25 7 -39 -2 -11 -7 -23 -9 -26 -6 -11 10 61
141 92 169 l29 26 26 -26 c14 -14 33 -39 43 -54 10 -15 20 -26 22 -23 2 2 -1
13 -8 24 -10 16 -10 24 -1 35 7 8 10 22 6 30 -3 10 17 51 53 106 44 69 60 86
65 73 5 -13 7 -11 6 8 0 38 48 155 63 155 9 0 22 -29 36 -76 12 -42 31 -95 42
-117 12 -23 21 -48 21 -56 0 -8 -19 -45 -43 -84 -24 -38 -56 -100 -71 -136
-21 -48 -33 -66 -45 -64 -17 4 -17 3 -8 97 9 81 -1 74 -13 -9 -10 -72 -19 -85
-44 -67 -16 12 -16 18 8 109 14 53 26 107 26 121 0 14 5 29 10 32 6 3 9 21 9
38 -2 27 -2 28 -6 7 -3 -14 -9 -29 -14 -34 -5 -6 -9 -24 -9 -40 0 -17 -13 -77
-28 -133 -22 -83 -32 -105 -56 -124 -23 -18 -28 -20 -23 -7 3 10 0 34 -8 55
l-14 38 1 -50 c1 -27 -3 -61 -7 -75 -8 -23 -6 -22 42 13 49 36 83 47 83 28 0
-6 15 -11 33 -13 l32 -3 -25 -14 c-14 -8 -38 -18 -55 -22 -26 -6 -24 -7 15 -6
25 1 50 5 55 10 6 4 24 17 41 27 33 19 34 22 75 162 19 70 27 82 68 115 77 61
130 116 163 166 l31 48 -34 35 -34 36 -87 -7 c-137 -10 -153 3 -98 84 29 43
32 80 9 105 -5 6 -9 25 -9 44 0 21 -7 40 -17 47 -13 10 -15 16 -6 26 6 8 7 22
2 34 -6 16 -8 17 -8 3z m17 -95 c2 -8 -6 -13 -22 -13 -19 0 -24 4 -19 15 6 18
34 16 41 -2z m189 -301 c23 -38 24 -62 4 -62 -5 0 -28 16 -52 35 -24 19 -56
37 -71 40 -16 3 -41 8 -58 11 -57 11 -29 19 62 18 l91 -2 24 -40z m-66 -32
c74 -59 73 -73 -9 -136 -52 -40 -63 -32 -42 31 17 50 -15 120 -59 130 -53 11
-34 23 21 13 32 -6 67 -21 89 -38z m-535 -91 c7 -12 -62 -87 -71 -77 -8 7 44
88 56 88 4 0 11 -5 15 -11z"/>
<path d="M650 889 c0 -16 -4 -28 -9 -25 -12 8 -19 -14 -16 -47 2 -15 0 -27 -5
-27 -11 0 -21 57 -15 88 l5 27 -10 -25 c-19 -43 6 -122 50 -157 24 -20 32 -15
16 9 -9 12 -16 32 -16 43 0 16 2 17 10 5 6 -9 10 -10 10 -3 0 6 -4 15 -10 18
-5 3 -10 20 -10 37 0 21 6 31 20 35 23 6 24 8 10 34 -16 28 -30 23 -30 -12z"/>
<path d="M697 855 c-15 -98 -16 -115 -6 -110 17 11 9 -15 -11 -35 -27 -27 -35
-25 -53 12 -12 26 -22 32 -46 33 -36 1 -35 2 -17 -33 22 -43 48 -61 96 -66 31
-4 36 -3 15 2 -21 5 -26 10 -17 16 7 4 25 5 39 1 18 -4 29 -1 40 12 14 17 14
17 8 -1 -6 -19 -5 -19 13 -3 10 9 21 14 25 11 7 -7 34 35 39 60 2 12 -4 20
-15 22 -13 2 -17 -2 -13 -12 3 -8 2 -13 -3 -10 -5 3 -12 -1 -15 -10 -3 -8 -2
-12 4 -9 6 3 10 -1 10 -9 0 -10 -9 -16 -22 -16 -13 0 -34 -3 -48 -7 -24 -6
-24 -5 -8 13 9 10 21 31 27 46 8 22 7 26 -4 22 -16 -6 -23 15 -28 81 l-3 40
-7 -50z"/>
<path d="M440 854 c0 -7 20 -34 45 -62 48 -54 61 -98 25 -89 -17 4 -20 2 -16
-16 3 -12 -2 -5 -12 15 -23 50 -48 61 -27 12 17 -42 -1 -34 -22 10 -12 27 -13
20 -2 -23 2 -7 -2 -16 -10 -19 -8 -2 -11 0 -7 6 3 5 2 21 -3 34 -6 15 -10 17
-10 7 -1 -24 -47 -12 -71 19 -20 25 -25 16 -14 -25 4 -14 14 -23 26 -23 25 0
58 -18 58 -31 0 -6 -4 -8 -9 -5 -4 3 -6 -7 -3 -22 5 -20 7 -22 10 -9 6 30 47
39 90 21 20 -8 62 -17 92 -20 53 -4 54 -3 28 11 -15 8 -29 24 -33 35 -3 11
-10 20 -15 20 -5 0 -14 18 -21 39 -7 23 -21 44 -35 52 -14 7 -33 26 -44 43
-11 17 -20 26 -20 20z"/>
<path d="M230 836 c0 -8 -10 -22 -22 -32 l-23 -16 25 5 c21 5 25 2 26 -19 2
-31 30 -74 49 -74 22 0 18 37 -5 57 -11 10 -23 32 -26 50 -6 34 -24 56 -24 29z"/>
<path d="M759 819 c-1 -8 0 -22 1 -32 1 -10 -6 -29 -14 -43 -9 -13 -12 -24 -6
-24 5 0 18 17 29 38 17 33 17 40 5 57 -10 14 -14 15 -15 4z"/>
<path d="M890 758 c-12 -20 -16 -37 -11 -47 6 -9 3 -23 -6 -37 -23 -35 4 -42
36 -9 l26 28 -35 -23 -35 -23 35 37 c34 36 34 38 16 52 -16 11 -17 17 -7 27
10 9 14 8 22 -6 6 -9 14 -15 19 -12 12 8 -11 45 -28 45 -7 0 -21 -14 -32 -32z"/>
<path d="M308 679 c12 -7 22 -18 22 -25 0 -7 9 -18 20 -24 21 -11 29 3 9 15
-6 4 -8 13 -5 21 3 9 -1 14 -13 14 -11 0 -28 2 -38 5 -11 3 -9 1 5 -6z"/>
<path d="M532 567 c-14 -59 -11 -77 13 -77 7 0 21 -7 29 -16 15 -14 16 -14 16
1 0 9 -13 21 -29 26 -27 10 -29 12 -19 45 5 19 8 45 6 56 -2 13 -9 -3 -16 -35z"/>
<path d="M978 613 c23 -2 61 -2 85 0 23 2 4 4 -43 4 -47 0 -66 -2 -42 -4z"/>
<path d="M1170 595 c19 -14 51 -48 70 -76 30 -45 35 -49 38 -30 2 14 -6 33
-20 48 -29 33 -98 83 -112 83 -6 0 5 -11 24 -25z"/>
<path d="M1208 508 c-4 -9 -1 -36 5 -60 11 -36 17 -44 40 -46 30 -4 37 17 12
38 -8 7 -15 9 -15 6 0 -21 -29 25 -32 50 -2 22 -5 25 -10 12z"/>
<path d="M580 438 c0 -4 18 -8 41 -8 22 0 38 4 35 9 -7 11 -76 10 -76 -1z"/>
<path d="M876 352 l-58 -87 42 40 c37 35 88 120 78 130 -2 2 -30 -35 -62 -83z"/>
<path d="M1216 315 c-27 -24 -51 -54 -53 -66 -2 -15 11 -4 43 35 26 31 53 56
60 56 8 0 14 5 14 10 0 18 -14 10 -64 -35z"/>
<path d="M1248 270 c-15 -5 -41 -18 -58 -30 -16 -12 -30 -18 -30 -13 0 4 -51
-42 -112 -104 -62 -61 -120 -113 -128 -116 -9 -3 -4 -6 11 -6 18 -1 43 14 77
44 45 41 53 44 71 33 20 -12 20 -12 -1 -48 l-20 -35 25 30 c15 17 26 25 27 18
0 -6 -4 -15 -10 -18 -5 -3 -10 -11 -10 -17 0 -6 16 10 36 36 41 54 52 55 29 1
-27 -65 -9 -50 44 39 47 77 71 108 71 91 0 -10 -82 -145 -91 -151 -19 -11 -8
-25 19 -22 24 3 30 11 51 73 23 67 35 169 19 159 -5 -3 -8 1 -8 10 0 8 6 16
13 19 23 8 2 14 -25 7z m8 -82 c-18 -25 -51 -35 -42 -12 10 26 -1 14 -48 -55
l-48 -69 -24 25 c-25 24 -32 39 -14 28 6 -3 10 -2 10 3 0 5 19 22 41 37 23 15
38 21 34 13 -4 -7 4 1 18 17 17 21 35 31 57 33 31 2 31 2 16 -20z"/>
<path d="M315 198 c-4 -13 -15 -30 -25 -38 -10 -8 -21 -26 -24 -40 -6 -24 -6
-24 5 -3 6 12 20 23 30 26 15 4 17 2 10 -11 -13 -26 -20 -101 -10 -108 5 -3 6
-10 3 -16 -4 -7 -2 -8 4 -4 7 4 13 22 13 39 2 30 2 30 9 -8 4 -22 5 9 2 70 -2
61 -6 111 -7 113 -2 2 -6 -7 -10 -20z"/>
<path d="M238 161 c-14 -11 -46 -25 -72 -32 -25 -6 -49 -16 -53 -22 -4 -7 0
-8 13 -3 10 5 37 13 59 19 22 6 46 18 53 26 10 13 10 11 1 -11 -7 -15 -15 -25
-20 -23 -4 3 -9 0 -11 -7 -2 -6 -21 -13 -41 -14 -20 -2 -46 -8 -57 -14 -11 -6
-24 -9 -28 -6 -15 9 -34 -12 -38 -43 -2 -17 1 -31 6 -31 5 0 10 12 12 28 3 23
8 27 38 28 19 1 48 6 64 13 23 9 31 9 38 -1 6 -10 8 -9 8 3 0 9 11 24 24 32
19 13 41 65 32 75 -2 1 -14 -7 -28 -17z"/>
</g>
</svg>
